<svg width="1366" height="779" viewBox="0 0 1366 779" fill="none" xmlns="http://www.w3.org/2000/svg">
<path d="M1368 0H0V779H1368V0Z" fill="white"/>
<path d="M182.359 776.476C376.944 223.644 515.422 137.438 820.305 -7.57129" stroke="#7352FF"/>
<path d="M234.285 776.476C426.697 242.521 586.825 132.486 888.304 -7.57129" stroke="#7352FF"/>
<path d="M302.901 776.476C495.23 242.521 656.189 132.486 957.538 -7.57129" stroke="#7352FF"/>
<path d="M374.608 776.476C566.904 242.521 723.624 132.486 1024.92 -7.57129" stroke="#7352FF"/>
<path d="M103.852 776.476C296.257 242.521 431.677 132.486 733.144 -7.57129" stroke="#7352FF"/>
<path d="M25.9629 776.476C218.15 242.539 372.675 129.958 673.8 -10.0952" stroke="#7352FF"/>
<path d="M614.456 779C809.042 226.168 947.518 139.961 1252.4 -5.04785" stroke="#7352FF"/>
<path d="M667.619 779C859.849 245.045 1019.82 135.01 1321.02 -5.04785" stroke="#7352FF"/>
<path d="M736.235 779C928.565 245.045 1089.52 135.01 1390.87 -5.04785" stroke="#7352FF"/>
<path d="M807.324 779C999.437 245.045 1156.01 135.01 1457.02 -5.04785" stroke="#7352FF"/>
<path d="M536.568 779C728.786 245.045 864.072 135.01 1165.24 -5.04785" stroke="#7352FF"/>
<path d="M458.679 779C650.866 245.063 805.389 132.482 1106.52 -7.57129" stroke="#7352FF"/>
<path d="M1002.05 776.476C1196.63 223.644 1335.11 137.438 1639.99 -7.57129" stroke="#7352FF"/>
<path d="M1063.24 776.476C1255.48 242.521 1415.45 132.486 1716.65 -7.57129" stroke="#7352FF"/>
<path d="M1131.86 779C1324.19 245.045 1485.15 135.01 1786.5 -5.04785" stroke="#7352FF"/>
<path d="M1199.86 779C1392.15 245.045 1548.88 135.01 1850.17 -5.04785" stroke="#7352FF"/>
<path d="M1256.73 779C1449.21 245.045 1606.07 135.01 1907.66 -5.04785" stroke="#7352FF"/>
<path d="M1307.42 777.318C1499.71 243.363 1656.44 133.328 1957.73 -6.72998" stroke="#7352FF"/>
<path d="M937.757 779C1130.16 245.045 1265.58 135.01 1567.05 -5.04785" stroke="#7352FF"/>
<path d="M875.94 776.476C1068.13 242.539 1222.65 129.958 1523.78 -10.0952" stroke="#7352FF"/>
<path d="M-253.448 777.318C-58.8624 224.486 79.6155 138.279 384.499 -6.72998" stroke="#7352FF"/>
<path d="M-200.286 777.318C-8.05513 243.363 151.921 133.328 453.115 -6.72998" stroke="#7352FF"/>
<path d="M-131.669 777.318C60.6593 243.363 221.62 133.328 522.968 -6.72998" stroke="#7352FF"/>
<path d="M-60.5802 777.318C131.898 243.363 288.766 133.328 590.348 -6.72998" stroke="#7352FF"/>
<path d="M-331.337 777.318C-138.931 243.363 -3.51168 133.328 297.956 -6.72998" stroke="#7352FF"/>
<path d="M-409.225 777.317C-217.038 243.38 -62.5137 130.8 238.612 -9.25391" stroke="#7352FF"/>
<path d="M-497.005 776.476C-304.634 242.539 -149.963 129.958 151.451 -10.0952" stroke="#7352FF"/>
</svg>
